<?xml version="1.0" encoding="UTF-8" standalone="no"?>
<!-- Created with Inkscape (http://www.inkscape.org/) -->

<svg
   width="664.36871mm"
   height="180.18126mm"
   viewBox="0 0 664.36872 180.18126"
   version="1.1"
   id="svg1"
   xml:space="preserve"
   xmlns="http://www.w3.org/2000/svg"
   xmlns:svg="http://www.w3.org/2000/svg"><defs
     id="defs1"><linearGradient
       id="paint0_linear_145_2"
       x1="340"
       y1="-43.312099"
       x2="340"
       y2="716.15601"
       gradientUnits="userSpaceOnUse"
       gradientTransform="matrix(0.26458333,0,0,0.26458334,411.35923,-3.1456311)"><stop
         stop-color="#003166"
         stop-opacity="0.5"
         id="stop2" /><stop
         offset="1"
         stop-color="#003166"
         stop-opacity="0.5"
         id="stop3" /></linearGradient><linearGradient
       id="paint1_linear_145_2"
       x1="668.271"
       y1="155.04201"
       x2="11.4571"
       y2="534.09698"
       gradientUnits="userSpaceOnUse"
       gradientTransform="matrix(0.26458333,0,0,0.26458334,411.35923,-3.1456311)"><stop
         stop-color="#003166"
         id="stop4" /><stop
         offset="1"
         stop-color="#223244"
         id="stop5" /></linearGradient><linearGradient
       id="paint0_linear_0_1"
       x1="790"
       y1="340.5"
       x2="2522"
       y2="340.5"
       gradientUnits="userSpaceOnUse"
       gradientTransform="matrix(0.26458333,0,0,0.26458334,-2.038663e-5,2.1166667)"><stop
         stop-color="#003166"
         id="stop3-4" /><stop
         offset="1"
         stop-color="#003166"
         id="stop4-8" /></linearGradient></defs><g
     id="g3"
     transform="translate(-410.18127)"><path
       d="m 501.31756,17.979179 c -8.02164,0 -16.04328,3.98026 -20.68751,11.940964 l -6.3455,10.876227 54.15438,0.151871 -6.4336,-11.028098 C 517.3611,21.959439 509.33919,17.979179 501.31756,17.979179 Z m -54.38537,69.703211 -4.47252,7.666303 c -9.38183,16.081377 2.11376,36.178597 20.68777,36.178597 h 9.08818 z m 108.85752,0.148432 -25.05472,43.696468 h 8.75294 c 18.57402,0 30.06964,-20.09722 20.68751,-36.178597 z"
       fill="url(#paint0_linear_145_2)"
       id="path1"
       style="fill:url(#paint0_linear_145_2);stroke-width:0.264583" /><path
       d="m 463.74064,54.004371 c -9.63613,-0.02699 -15.33022,9.789319 -10.50687,18.152269 7.9e-4,0.0013 7.9e-4,0.0026 0.002,0.0037 l 37.79361,65.48809 c 4.82415,8.35898 16.15916,8.34284 20.95976,-0.0291 L 549.41789,72.341854 C 554.196,64.008802 548.54927,54.241972 538.96368,54.21525 Z"
       fill="url(#paint1_linear_145_2)"
       id="path2"
       style="fill:url(#paint1_linear_145_2);stroke-width:0.264583" /></g><path
     d="M 216.70696,125.41252 V 60.589586 h 28.05906 c 5.80311,0 10.80373,0.956998 15.00187,2.87073 4.19815,1.852083 7.44009,4.537604 9.72344,8.056562 2.28336,3.518959 3.42636,7.717103 3.42636,12.594167 0,4.815417 -1.143,8.982605 -3.42636,12.501563 -2.28335,3.518962 -5.52529,6.235452 -9.72344,8.149182 -4.19814,1.85208 -9.19876,2.77812 -15.00187,2.77812 h -19.72469 l 6.6675,-6.76011 v 24.63272 z m 15.00187,-22.96584 -6.6675,-7.13053 h 18.89125 c 4.63021,0 8.08752,-0.98769 10.37167,-2.963334 2.28415,-1.975643 3.42635,-4.722812 3.42635,-8.241771 0,-3.580606 -1.1422,-6.358731 -3.42635,-8.334375 -2.28415,-1.975644 -5.74146,-2.963333 -10.37167,-2.963333 h -18.89125 l 6.6675,-7.130521 z m 50.83704,22.96584 V 75.591462 h 13.79802 v 14.075833 l -1.94468,-4.074583 c 1.48166,-3.518958 3.85762,-6.173523 7.13052,-7.963959 3.27025,-1.852083 7.25223,-2.778125 11.94593,-2.778125 v 13.335001 c -0.61912,-0.06165 -1.17475,-0.0926 -1.66687,-0.0926 -0.49477,-0.06165 -1.01865,-0.0926 -1.57427,-0.0926 -3.95288,0 -7.16227,1.142207 -9.63084,3.426355 -2.4077,2.2225 -3.61156,5.710502 -3.61156,10.464276 v 23.52147 z m 39.63459,0 V 75.591462 h 14.44624 v 49.821058 z m 7.22312,-56.766371 c -2.65377,0 -4.81542,-0.77179 -6.48229,-2.315104 -1.66688,-1.543315 -2.50031,-3.457311 -2.50031,-5.741459 0,-2.284148 0.83343,-4.198144 2.50031,-5.741458 1.66687,-1.543315 3.82852,-2.315104 6.48229,-2.315104 2.65642,0 4.81542,0.740833 6.48229,2.2225 1.66688,1.420018 2.50031,3.272102 2.50031,5.55625 0,2.407708 -0.83343,4.414044 -2.50031,6.019271 -1.60337,1.543314 -3.76502,2.315104 -6.48229,2.315104 z m 37.42002,57.507201 c -4.25979,0 -8.36612,-0.49398 -12.31635,-1.48167 -3.88938,-1.0496 -6.97707,-2.34606 -9.26042,-3.88937 l 4.81542,-10.37167 c 2.28335,1.42002 4.96887,2.59292 8.05656,3.51896 3.14854,0.86439 6.23623,1.29646 9.26041,1.29646 3.33375,0 5.68061,-0.40137 7.03792,-1.20386 1.42081,-0.80248 2.1299,-1.91373 2.1299,-3.33375 0,-1.17289 -0.55563,-2.03729 -1.66688,-2.59291 -1.05039,-0.61728 -2.46856,-1.0803 -4.25979,-1.38907 -1.79123,-0.30876 -3.76502,-0.61727 -5.92667,-0.92604 -2.09814,-0.30877 -4.22804,-0.70987 -6.38968,-1.20385 -2.16165,-0.55563 -4.13544,-1.35811 -5.92667,-2.40771 -1.79123,-1.04961 -3.24115,-2.469368 -4.3524,-4.259803 -1.05039,-1.790436 -1.57427,-4.10554 -1.57427,-6.945313 0,-3.148542 0.8943,-5.926667 2.68552,-8.334375 1.85209,-2.407709 4.50586,-4.290748 7.96396,-5.648855 3.45811,-1.420019 7.59354,-2.129896 12.40896,-2.129896 3.3946,0 6.85271,0.370417 10.37167,1.11125 3.51896,0.740834 6.45054,1.821128 8.79739,3.241146 l -4.81541,10.279063 c -2.40771,-1.420019 -4.84717,-2.376752 -7.31573,-2.870729 -2.40771,-0.555625 -4.75457,-0.833438 -7.03792,-0.833438 -3.2094,0 -5.55625,0.432065 -7.03792,1.296459 -1.48166,0.864394 -2.2225,1.975644 -2.2225,3.33375 0,1.23481 0.52388,2.160852 1.57428,2.778125 1.11124,0.617273 2.56116,1.11125 4.35239,1.481667 1.79123,0.370416 3.73592,0.709877 5.83406,1.018645 2.16165,0.246857 4.32065,0.64823 6.48229,1.203855 2.16165,0.555625 4.10634,1.358106 5.83407,2.407708 1.79123,0.987691 3.24114,2.376761 4.35239,4.167201 1.11125,1.72852 1.66688,4.01293 1.66688,6.85271 0,3.08689 -0.92604,5.83406 -2.77813,8.24177 -1.85208,2.34606 -4.5376,4.19814 -8.05656,5.55625 -3.4581,1.3581 -7.68615,2.03729 -12.68677,2.03729 z m 96.266,-51.302722 c 3.95023,0 7.43744,0.802482 10.46427,2.407709 3.08504,1.543314 5.49275,3.951023 7.22312,7.223125 1.78859,3.21019 2.68552,7.346686 2.68552,12.408959 V 125.41252 H 469.01626 V 99.112921 c 0,-4.012936 -0.83343,-6.976269 -2.50031,-8.890001 -1.66687,-1.913731 -4.01373,-2.870729 -7.03791,-2.870729 -2.1008,0 -3.98198,0.493977 -5.64886,1.481667 -1.66687,0.926042 -2.96333,2.34606 -3.88937,4.259792 -0.92605,1.913731 -1.38907,4.352396 -1.38907,7.31573 v 25.00314 H 434.10449 V 99.112921 c 0,-4.012936 -0.83343,-6.976269 -2.50031,-8.890001 -1.60602,-1.913731 -3.92112,-2.870729 -6.94531,-2.870729 -2.10079,0 -3.98198,0.493977 -5.64885,1.481667 -1.66688,0.926042 -2.96334,2.34606 -3.88938,4.259792 -0.92604,1.913731 -1.38906,4.352396 -1.38906,7.31573 v 25.00314 H 399.28533 V 75.591462 h 13.79802 v 13.612813 l -2.59292,-3.98198 c 1.72773,-3.395398 4.16719,-5.957623 7.31573,-7.686146 3.2094,-1.790435 6.85271,-2.685521 10.92729,-2.685521 4.56671,0 8.54869,1.172898 11.94594,3.518959 3.45546,2.284148 5.74146,5.803106 6.85271,10.556875 L 442.43887,87.5374 c 1.66687,-3.889376 4.32064,-6.976269 7.96396,-9.260417 3.70416,-2.284148 7.93221,-3.426355 12.68677,-3.426355 z m 38.74029,69.267932 c -2.59292,0 -5.15673,-0.40137 -7.68615,-1.20386 -2.53206,-0.80248 -4.6011,-1.91373 -6.20448,-3.33375 l 5.27844,-10.27906 c 1.11125,0.98769 2.37596,1.75948 3.79677,2.31511 1.48167,0.55562 2.93159,0.83343 4.3524,0.83343 2.03729,0 3.64066,-0.49397 4.81541,-1.48166 1.23296,-0.92604 2.34421,-2.50032 3.33375,-4.72282 l 2.59292,-6.11187 1.11125,-1.57427 17.8726,-42.968348 h 13.89063 l -22.50281,52.876988 c -1.60602,4.01294 -3.45811,7.16148 -5.55625,9.44563 -2.03729,2.28415 -4.32329,3.88937 -6.85271,4.81542 -2.47121,0.92604 -5.21758,1.38906 -8.24177,1.38906 z m 8.51958,-16.76136 -22.225,-51.765738 h 14.90927 l 17.22438,41.671888 z m 70.8369,-52.506572 c 3.95022,0 7.46918,0.802482 10.55686,2.407709 3.1486,1.543314 5.6171,3.951023 7.4083,7.223125 1.7886,3.21019 2.6856,7.346686 2.6856,12.408959 V 125.41252 H 587.39084 V 99.112921 c 0,-4.012936 -0.89693,-6.976269 -2.68552,-8.890001 -1.73037,-1.913731 -4.19893,-2.870729 -7.40833,-2.870729 -2.286,0 -4.35239,0.493977 -6.20448,1.481667 -1.79123,0.926042 -3.21204,2.376752 -4.25979,4.352396 -0.98954,1.975644 -1.48167,4.506648 -1.48167,7.593546 v 24.63272 H 550.9048 V 75.591462 h 13.79802 v 13.798021 l -2.59291,-4.167188 c 1.78858,-3.33375 4.35239,-5.89571 7.68614,-7.686146 3.33375,-1.790435 7.13052,-2.685521 11.39032,-2.685521 z m 58.85916,51.302722 c -5.6806,0 -10.6812,-1.11125 -15.0018,-3.33375 -4.2598,-2.2225 -7.5645,-5.24748 -9.9087,-9.07521 -2.3468,-3.88937 -3.5189,-8.30342 -3.5189,-13.24241 0,-5.000622 1.1403,-9.414666 3.4263,-13.242393 2.3442,-3.889375 5.5245,-6.914356 9.5382,-9.075209 4.0111,-2.2225 8.5487,-3.33375 13.6129,-3.33375 4.8762,0 9.2604,1.049603 13.1498,3.148542 3.9502,2.037292 7.067,5.000625 9.353,8.89 2.2833,3.827728 3.4263,8.42698 3.4263,13.79802 0,0.55563 -0.032,1.20386 -0.093,1.9447 -0.063,0.67919 -0.1243,1.32742 -0.1852,1.94469 h -40.468 v -8.426993 h 32.8745 l -5.5563,2.500313 c 0,-2.592917 -0.5265,-4.846373 -1.5742,-6.760104 -1.0504,-1.913732 -2.5004,-3.395398 -4.3524,-4.445001 -1.8521,-1.11125 -4.0138,-1.666875 -6.4823,-1.666875 -2.4712,0 -4.662,0.555625 -6.5749,1.666875 -1.8521,1.049603 -3.3047,2.561961 -4.3524,4.537605 -1.0504,1.913731 -1.5743,4.198144 -1.5743,6.852708 v 2.222502 c 0,2.71649 0.5847,5.1242 1.7595,7.22314 1.2329,2.03729 2.9316,3.61156 5.0932,4.72281 2.2225,1.0496 4.8154,1.57427 7.7788,1.57427 2.6537,0 4.9688,-0.40137 6.9453,-1.20386 2.0373,-0.80248 3.8893,-2.00633 5.5562,-3.61156 l 7.6862,8.33438 c -2.286,2.59291 -5.1568,4.59925 -8.6122,6.01927 -3.4581,1.3581 -7.4401,2.03729 -11.946,2.03729 z"
     fill="url(#paint0_linear_0_1)"
     id="path1-0"
     style="fill:url(#paint0_linear_0_1);stroke-width:0.264583" /></svg>
